<?xml version="1.0" standalone="no"?>
<!DOCTYPE svg PUBLIC "-//W3C//DTD SVG 20010904//EN"
 "http://www.w3.org/TR/2001/REC-SVG-20010904/DTD/svg10.dtd">
<svg version="1.0" xmlns="http://www.w3.org/2000/svg"
 width="500.000000pt" height="500.000000pt" viewBox="0 0 500.000000 500.000000"
 preserveAspectRatio="xMidYMid meet">
<metadata>
Created by potrace 1.14, written by Peter Selinger 2001-2017
</metadata>
<g transform="translate(0.000000,500.000000) scale(0.100000,-0.100000)"
fill="#000000" stroke="none">
<path d="M1325 4373 c-35 -8 -72 -53 -86 -101 -36 -135 -249 -504 -364 -632
-66 -74 -155 -230 -155 -272 0 -31 49 -78 81 -78 30 0 125 65 155 106 128 176
200 280 283 412 54 86 107 167 117 180 31 38 53 32 88 -21 61 -93 133 -187
229 -301 122 -144 130 -147 285 -123 151 24 268 22 418 -8 69 -14 138 -25 154
-25 16 0 57 -15 93 -33 35 -19 74 -36 86 -40 74 -19 179 68 303 252 116 173
218 301 240 301 17 0 59 -116 162 -451 38 -122 49 -139 109 -164 53 -22 84
-19 112 11 34 37 32 71 -15 189 -22 55 -76 224 -121 375 -86 291 -112 355
-155 389 -68 53 -116 36 -180 -63 -26 -39 -84 -110 -128 -157 -45 -47 -127
-152 -183 -235 -59 -86 -114 -156 -131 -166 -39 -23 -89 -22 -182 3 -56 15
-145 24 -345 35 -387 22 -341 10 -441 112 -85 86 -126 146 -260 385 -40 72
-56 91 -90 107 -41 21 -45 21 -79 13z"/>
<path d="M1811 2900 c-79 -19 -131 -86 -131 -168 0 -69 26 -112 90 -145 116
-62 221 -30 281 85 26 51 25 127 -2 162 -43 54 -157 86 -238 66z"/>
<path d="M2944 2826 c-16 -7 -47 -33 -67 -56 -98 -115 -83 -239 37 -303 58
-30 182 -31 222 -1 53 39 68 70 72 144 5 86 -7 119 -64 169 -65 57 -138 74
-200 47z"/>
<path d="M26 2816 c-38 -30 -14 -137 37 -171 34 -22 876 -187 963 -189 83 -1
104 11 104 61 0 66 -56 133 -128 152 -55 15 -849 153 -907 157 -34 3 -56 0
-69 -10z"/>
<path d="M4800 2679 c-38 -9 -439 -90 -693 -139 -87 -16 -173 -37 -190 -46
-112 -57 -99 -132 25 -139 88 -6 894 128 978 161 71 29 90 96 41 145 -25 24
-37 29 -78 28 -26 -1 -64 -5 -83 -10z"/>
<path d="M2205 2257 c-82 -27 -125 -73 -125 -134 0 -35 18 -62 89 -136 51 -53
56 -61 56 -103 0 -40 -4 -50 -34 -75 -22 -18 -55 -32 -90 -39 -31 -6 -69 -13
-84 -16 -20 -4 -33 -16 -42 -37 -26 -62 16 -126 97 -147 49 -14 87 -8 191 27
l78 27 42 -42 c85 -83 193 -104 293 -58 63 29 81 64 65 124 -23 85 -46 94
-177 77 -55 -7 -64 -5 -82 13 -12 12 -29 47 -38 78 -20 71 -14 142 21 220 14
31 25 71 25 89 0 40 -35 93 -78 118 -42 25 -152 32 -207 14z"/>
<path d="M995 2243 c-11 -2 -157 -33 -325 -69 -200 -42 -314 -70 -330 -82 -50
-37 -30 -126 35 -156 47 -22 81 -20 298 18 106 18 226 39 267 46 203 32 250
53 250 111 0 36 -29 70 -87 101 -56 30 -81 37 -108 31z"/>
<path d="M3899 2131 c-16 -16 -29 -39 -29 -52 0 -70 172 -137 420 -164 172
-18 228 -29 337 -61 89 -27 124 -25 148 9 32 46 1 153 -52 181 -32 16 -124 41
-189 50 -183 26 -518 66 -557 66 -40 0 -53 -5 -78 -29z"/>
<path d="M909 1551 c-74 -75 0 -186 246 -371 103 -77 126 -90 285 -155 157
-65 264 -101 362 -120 46 -9 189 -41 318 -72 l235 -55 230 11 c323 15 435 42
684 165 63 31 122 56 132 56 69 0 196 78 225 138 30 63 -2 131 -83 179 -42 24
-48 25 -82 13 -20 -7 -63 -32 -96 -55 -40 -29 -106 -59 -200 -93 -238 -85
-447 -150 -519 -163 -74 -12 -85 -12 -361 21 -215 25 -285 39 -430 84 -60 19
-180 56 -265 81 -229 70 -318 119 -469 260 -60 57 -102 87 -128 94 -52 15 -51
15 -84 -18z"/>
</g>
</svg>
